<?xml version="1.0" encoding="utf-8" standalone="no"?>
<!DOCTYPE svg PUBLIC "-//W3C//DTD SVG 1.1//EN"
  "http://www.w3.org/Graphics/SVG/1.1/DTD/svg11.dtd">
<!-- Created with matplotlib (http://matplotlib.org/) -->
<svg height="432pt" version="1.1" viewBox="0 0 576 432" width="576pt" xmlns="http://www.w3.org/2000/svg" xmlns:xlink="http://www.w3.org/1999/xlink">
 <defs>
  <style type="text/css">
*{stroke-linecap:butt;stroke-linejoin:round;stroke-miterlimit:100000;}
  </style>
 </defs>
 <g id="figure_1">
  <g id="patch_1">
   <path d="M 0 432 
L 576 432 
L 576 0 
L 0 0 
z
" style="fill:#ffffff;"/>
  </g>
  <g id="axes_1">
   <g id="patch_2">
    <path d="M 72 388.8 
L 518.4 388.8 
L 518.4 43.2 
L 72 43.2 
z
" style="fill:#ffffff;"/>
   </g>
   <g id="line2d_1">
    <path clip-path="url(#pcca1c17e51)" d="M 72 283.068699 
L 74.232 265.667285 
L 76.464 269.578099 
L 78.696 278.89779 
L 80.928 269.566544 
L 83.16 269.515746 
L 85.392 267.599752 
L 87.624 273.401456 
L 89.856 267.277717 
L 92.088 260.219211 
L 94.32 264.515666 
L 96.552 262.967968 
L 98.784 263.364425 
L 101.016 260.077591 
L 103.248 258.547382 
L 105.48 259.481982 
L 107.712 250.400774 
L 109.944 248.291726 
L 112.176 241.676165 
L 114.408 243.006454 
L 116.64 238.575745 
L 118.872 247.779063 
L 121.104 239.983172 
L 123.336 247.710383 
L 125.568 234.624086 
L 127.8 230.348467 
L 130.032 235.539566 
L 132.264 227.068299 
L 134.496 223.785191 
L 136.728 239.376129 
L 138.96 238.019431 
L 141.192 237.08447 
L 143.424 223.946576 
L 145.656 233.874077 
L 147.888 229.264087 
L 150.12 230.984195 
L 152.352 228.278162 
L 154.584 223.834439 
L 156.816 218.765656 
L 159.048 223.305225 
L 161.28 219.818541 
L 163.512 232.013637 
L 165.744 229.873669 
L 167.976 219.587661 
L 170.208 232.631827 
L 172.44 223.386924 
L 174.672 225.056108 
L 176.904 235.120906 
L 179.136 233.837611 
L 181.368 218.482763 
L 183.6 220.158017 
L 185.832 237.18569 
L 188.064 232.591313 
L 190.296 229.746777 
L 192.528 236.05242 
L 194.76 236.372542 
L 196.992 234.304122 
L 199.224 228.096002 
L 201.456 224.861241 
L 203.688 224.338469 
L 205.92 229.929437 
L 208.152 239.536483 
L 210.384 230.002304 
L 212.616 223.829571 
L 214.848 225.007965 
L 217.08 221.564363 
L 219.312 218.544877 
L 221.544 220.382046 
L 223.776 234.939408 
L 226.008 222.437117 
L 228.24 232.956385 
L 230.472 233.669557 
L 232.704 221.844121 
L 234.936 221.301345 
L 237.168 227.241651 
L 239.4 224.610314 
L 241.632 224.788475 
L 246.096 231.688226 
L 248.328 230.471955 
L 250.56 227.358003 
L 252.792 248.310861 
L 255.024 246.338007 
L 257.256 238.859839 
L 259.488 241.121734 
L 261.72 240.848437 
L 263.952 237.751388 
L 266.184 251.11258 
L 268.416 235.968038 
L 270.648 251.426896 
L 272.88 238.836132 
L 275.112 242.946766 
L 277.344 243.752073 
L 279.576 248.417226 
L 281.808 239.185607 
L 284.04 244.917461 
L 286.272 235.936545 
L 288.504 240.444262 
L 290.736 244.232443 
L 292.968 246.073945 
L 295.2 250.207108 
L 297.432 243.089499 
L 299.664 255.328182 
L 301.896 247.977743 
L 304.128 254.454235 
L 306.36 241.195071 
L 308.592 248.673207 
L 310.824 247.108826 
L 313.056 240.247051 
L 315.288 238.752234 
L 317.52 239.108841 
L 319.752 247.320465 
L 321.984 241.117153 
L 324.216 234.474856 
L 326.448 254.592288 
L 328.68 231.886377 
L 330.912 240.970822 
L 333.144 251.561012 
L 335.376 249.784188 
L 337.608 243.532538 
L 339.84 242.748786 
L 342.072 252.230217 
L 344.304 254.766878 
L 346.536 249.640257 
L 348.768 255.975723 
L 351 244.332025 
L 353.232 244.181888 
L 355.464 252.967046 
L 357.696 242.954001 
L 359.928 241.128683 
L 362.16 243.97523 
L 364.392 259.187645 
L 366.624 249.898241 
L 368.856 244.408657 
L 371.088 242.651773 
L 373.32 252.451691 
L 375.552 247.505603 
L 377.784 247.537071 
L 380.016 248.808398 
L 382.248 237.456058 
L 384.48 236.188642 
L 386.712 230.682179 
L 388.944 253.117724 
L 391.176 234.288966 
L 393.408 232.718259 
L 395.64 241.015703 
L 397.872 222.751529 
L 400.104 248.473119 
L 402.336 245.666948 
L 404.568 239.457246 
L 406.8 237.275506 
L 409.032 238.799769 
L 411.264 232.349018 
L 413.496 240.910173 
L 415.728 235.258035 
L 417.96 233.196926 
L 420.192 248.679919 
L 422.424 229.809635 
L 424.656 232.359842 
L 426.888 234.143787 
L 429.12 234.148081 
L 431.352 244.531123 
L 433.584 242.396127 
L 435.816 251.837281 
L 438.048 247.816972 
L 440.28 248.54228 
L 442.512 236.985579 
L 444.744 233.105831 
L 446.976 253.93241 
L 449.208 253.74102 
L 451.44 240.832986 
L 453.672 246.624552 
L 455.904 238.026503 
L 458.136 245.81439 
L 460.368 239.698988 
L 462.6 239.271573 
L 464.832 234.470418 
L 467.064 235.290512 
L 469.296 234.280457 
L 471.528 233.687516 
L 473.76 219.150329 
L 475.992 230.894573 
L 478.224 232.184464 
L 480.456 236.108307 
L 482.688 232.092508 
L 484.92 228.337676 
L 487.152 230.266783 
L 489.384 234.839353 
L 489.384 234.839353 
" style="fill:none;stroke:#0000ff;stroke-linecap:square;"/>
   </g>
   <g id="line2d_2">
    <path clip-path="url(#pcca1c17e51)" d="M 72 335.750986 
L 74.232 311.267125 
L 76.464 315.566198 
L 78.696 329.265957 
L 80.928 316.778282 
L 83.16 319.347648 
L 85.392 316.656737 
L 87.624 325.928671 
L 92.088 315.26999 
L 94.32 325.014142 
L 96.552 326.460171 
L 98.784 328.95162 
L 101.016 324.312612 
L 103.248 325.556303 
L 105.48 325.988311 
L 107.712 316.989698 
L 109.944 316.735181 
L 112.176 308.881492 
L 114.408 309.758297 
L 116.64 309.713229 
L 118.872 315.89287 
L 121.104 308.802776 
L 123.336 319.375641 
L 125.568 302.449917 
L 127.8 299.496045 
L 130.032 303.776457 
L 132.264 290.944123 
L 134.496 287.394495 
L 136.728 307.074335 
L 138.96 305.956358 
L 141.192 305.990126 
L 143.424 288.478348 
L 145.656 302.521723 
L 147.888 294.765304 
L 150.12 297.596295 
L 152.352 292.57934 
L 154.584 286.849546 
L 156.816 278.835135 
L 159.048 285.258059 
L 161.28 281.127726 
L 163.512 298.089741 
L 165.744 294.845874 
L 167.976 280.406649 
L 170.208 298.27537 
L 172.44 285.352742 
L 174.672 288.213409 
L 176.904 301.150404 
L 179.136 302.58996 
L 181.368 278.652562 
L 183.6 281.965579 
L 185.832 303.147096 
L 188.064 298.123456 
L 190.296 295.198623 
L 192.528 303.535823 
L 194.76 301.760693 
L 196.992 300.9874 
L 199.224 292.643137 
L 201.456 287.200518 
L 203.688 289.504981 
L 205.92 295.070229 
L 208.152 307.223908 
L 210.384 296.161709 
L 212.616 286.887299 
L 214.848 288.651258 
L 217.08 283.250508 
L 219.312 278.331349 
L 221.544 281.45668 
L 223.776 301.1945 
L 226.008 285.334266 
L 228.24 297.682568 
L 230.472 298.485425 
L 232.704 283.302151 
L 234.936 283.816252 
L 237.168 291.133222 
L 239.4 287.710414 
L 241.632 288.609966 
L 243.864 293.055608 
L 246.096 296.690214 
L 248.328 296.33768 
L 250.56 291.844327 
L 252.792 318.262062 
L 255.024 312.754783 
L 257.256 303.951178 
L 259.488 306.562848 
L 261.72 308.933293 
L 263.952 305.113999 
L 266.184 319.655745 
L 268.416 302.412698 
L 270.648 319.873835 
L 272.88 305.301678 
L 275.112 312.705551 
L 277.344 312.174097 
L 279.576 318.802867 
L 281.808 306.174147 
L 284.04 313.700939 
L 286.272 303.574218 
L 288.504 308.162918 
L 290.736 314.62199 
L 292.968 314.99252 
L 295.2 317.857871 
L 297.432 312.23828 
L 299.664 323.380132 
L 301.896 317.106778 
L 304.128 319.578367 
L 306.36 307.259562 
L 308.592 317.591867 
L 310.824 313.767394 
L 313.056 307.697986 
L 315.288 306.2863 
L 317.52 307.045299 
L 319.752 314.935082 
L 324.216 301.101156 
L 326.448 321.489381 
L 328.68 296.732081 
L 330.912 306.670674 
L 333.144 321.486951 
L 335.376 316.657552 
L 337.608 310.036307 
L 339.84 307.586192 
L 344.304 324.749571 
L 346.536 315.950568 
L 348.768 321.958617 
L 351 310.908606 
L 353.232 310.624216 
L 355.464 319.863986 
L 357.696 309.719806 
L 359.928 306.191474 
L 364.392 325.298836 
L 366.624 316.884726 
L 368.856 312.244647 
L 371.088 307.309124 
L 373.32 320.99096 
L 375.552 316.29884 
L 377.784 316.865467 
L 380.016 316.305151 
L 382.248 307.57698 
L 384.48 304.233852 
L 386.712 298.457193 
L 388.944 324.661555 
L 391.176 303.9864 
L 393.408 303.057088 
L 395.64 311.659601 
L 397.872 287.456593 
L 400.104 320.714915 
L 402.336 315.44398 
L 404.568 309.043525 
L 406.8 306.205398 
L 409.032 306.623809 
L 411.264 302.902891 
L 413.496 310.43311 
L 415.728 303.600689 
L 417.96 300.523702 
L 420.192 320.17878 
L 422.424 297.327482 
L 424.656 300.466823 
L 426.888 303.913599 
L 429.12 301.984853 
L 431.352 317.106917 
L 433.584 312.486307 
L 435.816 318.388859 
L 438.048 315.623554 
L 440.28 317.778515 
L 442.512 307.425717 
L 444.744 303.940661 
L 446.976 322.892879 
L 449.208 324.130621 
L 451.44 312.540696 
L 453.672 319.452592 
L 455.904 310.546197 
L 458.136 322.854155 
L 460.368 310.876251 
L 462.6 311.21293 
L 464.832 308.731077 
L 469.296 312.234981 
L 471.528 312.488346 
L 473.76 285.085856 
L 475.992 304.841729 
L 478.224 304.598631 
L 480.456 309.03694 
L 482.688 304.299724 
L 484.92 297.219297 
L 487.152 305.796021 
L 489.384 311.085759 
L 489.384 311.085759 
" style="fill:none;stroke:#008000;stroke-dasharray:3.000000,5.000000,1.000000,5.000000;stroke-dashoffset:0.0;"/>
   </g>
   <g id="line2d_3">
    <path clip-path="url(#pcca1c17e51)" d="M 72 230.386413 
L 74.232 220.067445 
L 76.464 223.59 
L 78.696 228.529623 
L 80.928 222.354806 
L 83.16 219.683844 
L 85.392 218.542767 
L 87.624 220.87424 
L 89.856 213.897846 
L 92.088 205.168432 
L 94.32 204.017191 
L 96.552 199.475764 
L 98.784 197.77723 
L 101.016 195.842571 
L 103.248 191.538461 
L 105.48 192.975652 
L 107.712 183.81185 
L 109.944 179.848272 
L 112.176 174.470838 
L 114.408 176.254611 
L 116.64 167.438262 
L 118.872 179.665256 
L 121.104 171.163568 
L 123.336 176.045125 
L 125.568 166.798255 
L 127.8 161.200889 
L 130.032 167.302676 
L 132.264 163.192475 
L 134.496 160.175887 
L 136.728 171.677923 
L 138.96 170.082504 
L 141.192 168.178814 
L 143.424 159.414805 
L 145.656 165.226431 
L 147.888 163.76287 
L 150.12 164.372094 
L 152.352 163.976984 
L 154.584 160.819332 
L 156.816 158.696178 
L 159.048 161.352392 
L 161.28 158.509356 
L 163.512 165.937533 
L 165.744 164.901463 
L 167.976 158.768673 
L 170.208 166.988285 
L 172.44 161.421105 
L 174.672 161.898807 
L 176.904 169.091409 
L 179.136 165.085262 
L 181.368 158.312964 
L 183.6 158.350454 
L 185.832 171.224283 
L 188.064 167.05917 
L 190.296 164.294931 
L 192.528 168.569016 
L 194.76 170.984391 
L 196.992 167.620844 
L 199.224 163.548867 
L 201.456 162.521964 
L 203.688 159.171957 
L 205.92 164.788645 
L 208.152 171.849059 
L 210.384 163.842899 
L 212.616 160.771844 
L 214.848 161.364673 
L 217.08 159.878217 
L 219.312 158.758405 
L 221.544 159.307412 
L 223.776 168.684315 
L 226.008 159.539968 
L 228.24 168.230203 
L 230.472 168.853688 
L 232.704 160.38609 
L 234.936 158.786438 
L 237.168 163.350079 
L 239.4 161.510215 
L 241.632 160.966984 
L 243.864 163.415097 
L 246.096 166.686239 
L 248.328 164.60623 
L 250.56 162.87168 
L 252.792 178.35966 
L 255.024 179.921232 
L 257.256 173.768501 
L 259.488 175.68062 
L 261.72 172.76358 
L 263.952 170.388776 
L 266.184 182.569414 
L 268.416 169.523377 
L 270.648 182.979957 
L 272.88 172.370587 
L 275.112 173.18798 
L 277.344 175.330048 
L 279.576 178.031585 
L 281.808 172.197066 
L 284.04 176.133982 
L 286.272 168.298873 
L 288.504 172.725606 
L 290.736 173.842896 
L 292.968 177.15537 
L 295.2 182.556345 
L 297.432 173.940719 
L 299.664 187.276233 
L 301.896 178.848707 
L 304.128 189.330102 
L 306.36 175.13058 
L 308.592 179.754547 
L 310.824 180.450259 
L 313.056 172.796115 
L 315.288 171.218168 
L 317.52 171.172382 
L 319.752 179.705847 
L 321.984 174.351223 
L 324.216 167.848556 
L 326.448 187.695195 
L 328.68 167.040674 
L 330.912 175.270969 
L 333.144 181.635073 
L 335.376 182.910823 
L 337.608 177.028768 
L 339.84 177.911379 
L 342.072 188.379815 
L 344.304 184.784184 
L 346.536 183.329946 
L 348.768 189.992828 
L 351 177.755445 
L 353.232 177.739559 
L 355.464 186.070107 
L 357.696 176.188196 
L 359.928 176.065891 
L 362.16 172.23932 
L 364.392 193.076454 
L 366.624 182.911755 
L 368.856 176.572667 
L 371.088 177.994422 
L 373.32 183.912421 
L 375.552 178.712365 
L 377.784 178.208675 
L 380.016 181.311645 
L 382.248 167.335136 
L 384.48 168.143432 
L 386.712 162.907166 
L 388.944 181.573894 
L 391.176 164.591532 
L 393.408 162.379429 
L 395.64 170.371804 
L 397.872 158.046465 
L 400.104 176.231323 
L 402.336 175.889917 
L 404.568 169.870968 
L 406.8 168.345614 
L 409.032 170.975729 
L 411.264 161.795145 
L 413.496 171.387236 
L 415.728 166.915382 
L 417.96 165.870151 
L 420.192 177.181059 
L 422.424 162.291787 
L 424.656 164.252862 
L 426.888 164.373976 
L 429.12 166.311309 
L 431.352 171.955329 
L 433.584 172.305947 
L 435.816 185.285704 
L 438.048 180.010389 
L 440.28 179.306045 
L 442.512 166.54544 
L 444.744 162.271001 
L 446.976 184.971941 
L 449.208 183.351419 
L 451.44 169.125276 
L 453.672 173.796512 
L 455.904 165.506809 
L 458.136 168.774625 
L 460.368 168.521725 
L 462.6 167.330215 
L 464.832 160.209758 
L 467.064 160.165368 
L 469.296 156.325933 
L 471.528 154.886686 
L 473.76 153.214803 
L 475.992 156.947418 
L 478.224 159.770298 
L 480.456 163.179674 
L 482.688 159.885292 
L 484.92 159.456056 
L 487.152 154.737544 
L 489.384 158.592947 
L 489.384 158.592947 
" style="fill:none;stroke:#008000;stroke-dasharray:3.000000,5.000000,1.000000,5.000000;stroke-dashoffset:0.0;"/>
   </g>
   <g id="line2d_4">
    <path clip-path="url(#pcca1c17e51)" d="M 72 182.8551 
L 74.232 181.668 
L 76.464 181.505126 
L 83.16 181.454489 
L 277.344 181.44 
L 279.576 157.899942 
L 284.04 157.899942 
L 286.272 140.454471 
L 290.736 140.454471 
L 292.968 136.061896 
L 315.288 136.061896 
L 317.52 135.887025 
L 351 135.887025 
L 353.232 135.630527 
L 357.696 135.630527 
L 362.16 135.372677 
L 368.856 135.372677 
L 371.088 128.873265 
L 373.32 119.66029 
L 377.784 119.66029 
L 380.016 112.44161 
L 384.48 112.369495 
L 442.512 112.34476 
L 444.744 83.216613 
L 460.368 83.216613 
L 462.6 73.488185 
L 487.152 73.488185 
L 489.384 47.42472 
L 489.384 47.42472 
" style="fill:none;stroke:#ff0000;stroke-linecap:square;"/>
   </g>
   <g id="patch_3">
    <path d="M 72 43.2 
L 518.4 43.2 
" style="fill:none;stroke:#000000;stroke-linecap:square;stroke-linejoin:miter;"/>
   </g>
   <g id="patch_4">
    <path d="M 518.4 388.8 
L 518.4 43.2 
" style="fill:none;stroke:#000000;stroke-linecap:square;stroke-linejoin:miter;"/>
   </g>
   <g id="patch_5">
    <path d="M 72 388.8 
L 518.4 388.8 
" style="fill:none;stroke:#000000;stroke-linecap:square;stroke-linejoin:miter;"/>
   </g>
   <g id="patch_6">
    <path d="M 72 388.8 
L 72 43.2 
" style="fill:none;stroke:#000000;stroke-linecap:square;stroke-linejoin:miter;"/>
   </g>
   <g id="matplotlib.axis_1">
    <g id="xtick_1">
     <g id="line2d_5">
      <path clip-path="url(#pcca1c17e51)" d="M 72 388.8 
L 72 43.2 
" style="fill:none;stroke:#000000;stroke-dasharray:1.000000,3.000000;stroke-dashoffset:0.0;stroke-width:0.5;"/>
     </g>
     <g id="line2d_6">
      <defs>
       <path d="M 0 0 
L 0 -4 
" id="m499cce5874" style="stroke:#000000;stroke-width:0.5;"/>
      </defs>
      <g>
       <use style="stroke:#000000;stroke-width:0.5;" x="72.0" xlink:href="#m499cce5874" y="388.8"/>
      </g>
     </g>
     <g id="line2d_7">
      <defs>
       <path d="M 0 0 
L 0 4 
" id="mcc8d8a9222" style="stroke:#000000;stroke-width:0.5;"/>
      </defs>
      <g>
       <use style="stroke:#000000;stroke-width:0.5;" x="72.0" xlink:href="#mcc8d8a9222" y="43.2"/>
      </g>
     </g>
     <g id="text_1">
      <!-- 0 -->
      <defs>
       <path d="M 31.78125 66.40625 
Q 24.171875 66.40625 20.328125 58.90625 
Q 16.5 51.421875 16.5 36.375 
Q 16.5 21.390625 20.328125 13.890625 
Q 24.171875 6.390625 31.78125 6.390625 
Q 39.453125 6.390625 43.28125 13.890625 
Q 47.125 21.390625 47.125 36.375 
Q 47.125 51.421875 43.28125 58.90625 
Q 39.453125 66.40625 31.78125 66.40625 
M 31.78125 74.21875 
Q 44.046875 74.21875 50.515625 64.515625 
Q 56.984375 54.828125 56.984375 36.375 
Q 56.984375 17.96875 50.515625 8.265625 
Q 44.046875 -1.421875 31.78125 -1.421875 
Q 19.53125 -1.421875 13.0625 8.265625 
Q 6.59375 17.96875 6.59375 36.375 
Q 6.59375 54.828125 13.0625 64.515625 
Q 19.53125 74.21875 31.78125 74.21875 
" id="BitstreamVeraSans-Roman-30"/>
      </defs>
      <g transform="translate(68.1825 401.918125)scale(0.12 -0.12)">
       <use xlink:href="#BitstreamVeraSans-Roman-30"/>
      </g>
     </g>
    </g>
    <g id="xtick_2">
     <g id="line2d_8">
      <path clip-path="url(#pcca1c17e51)" d="M 183.6 388.8 
L 183.6 43.2 
" style="fill:none;stroke:#000000;stroke-dasharray:1.000000,3.000000;stroke-dashoffset:0.0;stroke-width:0.5;"/>
     </g>
     <g id="line2d_9">
      <g>
       <use style="stroke:#000000;stroke-width:0.5;" x="183.6" xlink:href="#m499cce5874" y="388.8"/>
      </g>
     </g>
     <g id="line2d_10">
      <g>
       <use style="stroke:#000000;stroke-width:0.5;" x="183.6" xlink:href="#mcc8d8a9222" y="43.2"/>
      </g>
     </g>
     <g id="text_2">
      <!-- 50 -->
      <defs>
       <path d="M 10.796875 72.90625 
L 49.515625 72.90625 
L 49.515625 64.59375 
L 19.828125 64.59375 
L 19.828125 46.734375 
Q 21.96875 47.46875 24.109375 47.828125 
Q 26.265625 48.1875 28.421875 48.1875 
Q 40.625 48.1875 47.75 41.5 
Q 54.890625 34.8125 54.890625 23.390625 
Q 54.890625 11.625 47.5625 5.09375 
Q 40.234375 -1.421875 26.90625 -1.421875 
Q 22.3125 -1.421875 17.546875 -0.640625 
Q 12.796875 0.140625 7.71875 1.703125 
L 7.71875 11.625 
Q 12.109375 9.234375 16.796875 8.0625 
Q 21.484375 6.890625 26.703125 6.890625 
Q 35.15625 6.890625 40.078125 11.328125 
Q 45.015625 15.765625 45.015625 23.390625 
Q 45.015625 31 40.078125 35.4375 
Q 35.15625 39.890625 26.703125 39.890625 
Q 22.75 39.890625 18.8125 39.015625 
Q 14.890625 38.140625 10.796875 36.28125 
z
" id="BitstreamVeraSans-Roman-35"/>
      </defs>
      <g transform="translate(175.965 401.918125)scale(0.12 -0.12)">
       <use xlink:href="#BitstreamVeraSans-Roman-35"/>
       <use x="63.623046875" xlink:href="#BitstreamVeraSans-Roman-30"/>
      </g>
     </g>
    </g>
    <g id="xtick_3">
     <g id="line2d_11">
      <path clip-path="url(#pcca1c17e51)" d="M 295.2 388.8 
L 295.2 43.2 
" style="fill:none;stroke:#000000;stroke-dasharray:1.000000,3.000000;stroke-dashoffset:0.0;stroke-width:0.5;"/>
     </g>
     <g id="line2d_12">
      <g>
       <use style="stroke:#000000;stroke-width:0.5;" x="295.2" xlink:href="#m499cce5874" y="388.8"/>
      </g>
     </g>
     <g id="line2d_13">
      <g>
       <use style="stroke:#000000;stroke-width:0.5;" x="295.2" xlink:href="#mcc8d8a9222" y="43.2"/>
      </g>
     </g>
     <g id="text_3">
      <!-- 100 -->
      <defs>
       <path d="M 12.40625 8.296875 
L 28.515625 8.296875 
L 28.515625 63.921875 
L 10.984375 60.40625 
L 10.984375 69.390625 
L 28.421875 72.90625 
L 38.28125 72.90625 
L 38.28125 8.296875 
L 54.390625 8.296875 
L 54.390625 0 
L 12.40625 0 
z
" id="BitstreamVeraSans-Roman-31"/>
      </defs>
      <g transform="translate(283.7475 401.918125)scale(0.12 -0.12)">
       <use xlink:href="#BitstreamVeraSans-Roman-31"/>
       <use x="63.623046875" xlink:href="#BitstreamVeraSans-Roman-30"/>
       <use x="127.24609375" xlink:href="#BitstreamVeraSans-Roman-30"/>
      </g>
     </g>
    </g>
    <g id="xtick_4">
     <g id="line2d_14">
      <path clip-path="url(#pcca1c17e51)" d="M 406.8 388.8 
L 406.8 43.2 
" style="fill:none;stroke:#000000;stroke-dasharray:1.000000,3.000000;stroke-dashoffset:0.0;stroke-width:0.5;"/>
     </g>
     <g id="line2d_15">
      <g>
       <use style="stroke:#000000;stroke-width:0.5;" x="406.8" xlink:href="#m499cce5874" y="388.8"/>
      </g>
     </g>
     <g id="line2d_16">
      <g>
       <use style="stroke:#000000;stroke-width:0.5;" x="406.8" xlink:href="#mcc8d8a9222" y="43.2"/>
      </g>
     </g>
     <g id="text_4">
      <!-- 150 -->
      <g transform="translate(395.3475 401.918125)scale(0.12 -0.12)">
       <use xlink:href="#BitstreamVeraSans-Roman-31"/>
       <use x="63.623046875" xlink:href="#BitstreamVeraSans-Roman-35"/>
       <use x="127.24609375" xlink:href="#BitstreamVeraSans-Roman-30"/>
      </g>
     </g>
    </g>
    <g id="xtick_5">
     <g id="line2d_17">
      <path clip-path="url(#pcca1c17e51)" d="M 518.4 388.8 
L 518.4 43.2 
" style="fill:none;stroke:#000000;stroke-dasharray:1.000000,3.000000;stroke-dashoffset:0.0;stroke-width:0.5;"/>
     </g>
     <g id="line2d_18">
      <g>
       <use style="stroke:#000000;stroke-width:0.5;" x="518.4" xlink:href="#m499cce5874" y="388.8"/>
      </g>
     </g>
     <g id="line2d_19">
      <g>
       <use style="stroke:#000000;stroke-width:0.5;" x="518.4" xlink:href="#mcc8d8a9222" y="43.2"/>
      </g>
     </g>
     <g id="text_5">
      <!-- 200 -->
      <defs>
       <path d="M 19.1875 8.296875 
L 53.609375 8.296875 
L 53.609375 0 
L 7.328125 0 
L 7.328125 8.296875 
Q 12.9375 14.109375 22.625 23.890625 
Q 32.328125 33.6875 34.8125 36.53125 
Q 39.546875 41.84375 41.421875 45.53125 
Q 43.3125 49.21875 43.3125 52.78125 
Q 43.3125 58.59375 39.234375 62.25 
Q 35.15625 65.921875 28.609375 65.921875 
Q 23.96875 65.921875 18.8125 64.3125 
Q 13.671875 62.703125 7.8125 59.421875 
L 7.8125 69.390625 
Q 13.765625 71.78125 18.9375 73 
Q 24.125 74.21875 28.421875 74.21875 
Q 39.75 74.21875 46.484375 68.546875 
Q 53.21875 62.890625 53.21875 53.421875 
Q 53.21875 48.921875 51.53125 44.890625 
Q 49.859375 40.875 45.40625 35.40625 
Q 44.1875 33.984375 37.640625 27.21875 
Q 31.109375 20.453125 19.1875 8.296875 
" id="BitstreamVeraSans-Roman-32"/>
      </defs>
      <g transform="translate(506.9475 401.918125)scale(0.12 -0.12)">
       <use xlink:href="#BitstreamVeraSans-Roman-32"/>
       <use x="63.623046875" xlink:href="#BitstreamVeraSans-Roman-30"/>
       <use x="127.24609375" xlink:href="#BitstreamVeraSans-Roman-30"/>
      </g>
     </g>
    </g>
    <g id="text_6">
     <!-- Generations -->
     <defs>
      <path d="M 54.890625 33.015625 
L 54.890625 0 
L 45.90625 0 
L 45.90625 32.71875 
Q 45.90625 40.484375 42.875 44.328125 
Q 39.84375 48.1875 33.796875 48.1875 
Q 26.515625 48.1875 22.3125 43.546875 
Q 18.109375 38.921875 18.109375 30.90625 
L 18.109375 0 
L 9.078125 0 
L 9.078125 54.6875 
L 18.109375 54.6875 
L 18.109375 46.1875 
Q 21.34375 51.125 25.703125 53.5625 
Q 30.078125 56 35.796875 56 
Q 45.21875 56 50.046875 50.171875 
Q 54.890625 44.34375 54.890625 33.015625 
" id="BitstreamVeraSans-Roman-6e"/>
      <path d="M 41.109375 46.296875 
Q 39.59375 47.171875 37.8125 47.578125 
Q 36.03125 48 33.890625 48 
Q 26.265625 48 22.1875 43.046875 
Q 18.109375 38.09375 18.109375 28.8125 
L 18.109375 0 
L 9.078125 0 
L 9.078125 54.6875 
L 18.109375 54.6875 
L 18.109375 46.1875 
Q 20.953125 51.171875 25.484375 53.578125 
Q 30.03125 56 36.53125 56 
Q 37.453125 56 38.578125 55.875 
Q 39.703125 55.765625 41.0625 55.515625 
z
" id="BitstreamVeraSans-Roman-72"/>
      <path d="M 30.609375 48.390625 
Q 23.390625 48.390625 19.1875 42.75 
Q 14.984375 37.109375 14.984375 27.296875 
Q 14.984375 17.484375 19.15625 11.84375 
Q 23.34375 6.203125 30.609375 6.203125 
Q 37.796875 6.203125 41.984375 11.859375 
Q 46.1875 17.53125 46.1875 27.296875 
Q 46.1875 37.015625 41.984375 42.703125 
Q 37.796875 48.390625 30.609375 48.390625 
M 30.609375 56 
Q 42.328125 56 49.015625 48.375 
Q 55.71875 40.765625 55.71875 27.296875 
Q 55.71875 13.875 49.015625 6.21875 
Q 42.328125 -1.421875 30.609375 -1.421875 
Q 18.84375 -1.421875 12.171875 6.21875 
Q 5.515625 13.875 5.515625 27.296875 
Q 5.515625 40.765625 12.171875 48.375 
Q 18.84375 56 30.609375 56 
" id="BitstreamVeraSans-Roman-6f"/>
      <path d="M 59.515625 10.40625 
L 59.515625 29.984375 
L 43.40625 29.984375 
L 43.40625 38.09375 
L 69.28125 38.09375 
L 69.28125 6.78125 
Q 63.578125 2.734375 56.6875 0.65625 
Q 49.8125 -1.421875 42 -1.421875 
Q 24.90625 -1.421875 15.25 8.5625 
Q 5.609375 18.5625 5.609375 36.375 
Q 5.609375 54.25 15.25 64.234375 
Q 24.90625 74.21875 42 74.21875 
Q 49.125 74.21875 55.546875 72.453125 
Q 61.96875 70.703125 67.390625 67.28125 
L 67.390625 56.78125 
Q 61.921875 61.421875 55.765625 63.765625 
Q 49.609375 66.109375 42.828125 66.109375 
Q 29.4375 66.109375 22.71875 58.640625 
Q 16.015625 51.171875 16.015625 36.375 
Q 16.015625 21.625 22.71875 14.15625 
Q 29.4375 6.6875 42.828125 6.6875 
Q 48.046875 6.6875 52.140625 7.59375 
Q 56.25 8.5 59.515625 10.40625 
" id="BitstreamVeraSans-Roman-47"/>
      <path d="M 9.421875 54.6875 
L 18.40625 54.6875 
L 18.40625 0 
L 9.421875 0 
z
M 9.421875 75.984375 
L 18.40625 75.984375 
L 18.40625 64.59375 
L 9.421875 64.59375 
z
" id="BitstreamVeraSans-Roman-69"/>
      <path d="M 56.203125 29.59375 
L 56.203125 25.203125 
L 14.890625 25.203125 
Q 15.484375 15.921875 20.484375 11.0625 
Q 25.484375 6.203125 34.421875 6.203125 
Q 39.59375 6.203125 44.453125 7.46875 
Q 49.3125 8.734375 54.109375 11.28125 
L 54.109375 2.78125 
Q 49.265625 0.734375 44.1875 -0.34375 
Q 39.109375 -1.421875 33.890625 -1.421875 
Q 20.796875 -1.421875 13.15625 6.1875 
Q 5.515625 13.8125 5.515625 26.8125 
Q 5.515625 40.234375 12.765625 48.109375 
Q 20.015625 56 32.328125 56 
Q 43.359375 56 49.78125 48.890625 
Q 56.203125 41.796875 56.203125 29.59375 
M 47.21875 32.234375 
Q 47.125 39.59375 43.09375 43.984375 
Q 39.0625 48.390625 32.421875 48.390625 
Q 24.90625 48.390625 20.390625 44.140625 
Q 15.875 39.890625 15.1875 32.171875 
z
" id="BitstreamVeraSans-Roman-65"/>
      <path d="M 18.3125 70.21875 
L 18.3125 54.6875 
L 36.8125 54.6875 
L 36.8125 47.703125 
L 18.3125 47.703125 
L 18.3125 18.015625 
Q 18.3125 11.328125 20.140625 9.421875 
Q 21.96875 7.515625 27.59375 7.515625 
L 36.8125 7.515625 
L 36.8125 0 
L 27.59375 0 
Q 17.1875 0 13.234375 3.875 
Q 9.28125 7.765625 9.28125 18.015625 
L 9.28125 47.703125 
L 2.6875 47.703125 
L 2.6875 54.6875 
L 9.28125 54.6875 
L 9.28125 70.21875 
z
" id="BitstreamVeraSans-Roman-74"/>
      <path d="M 34.28125 27.484375 
Q 23.390625 27.484375 19.1875 25 
Q 14.984375 22.515625 14.984375 16.5 
Q 14.984375 11.71875 18.140625 8.90625 
Q 21.296875 6.109375 26.703125 6.109375 
Q 34.1875 6.109375 38.703125 11.40625 
Q 43.21875 16.703125 43.21875 25.484375 
L 43.21875 27.484375 
z
M 52.203125 31.203125 
L 52.203125 0 
L 43.21875 0 
L 43.21875 8.296875 
Q 40.140625 3.328125 35.546875 0.953125 
Q 30.953125 -1.421875 24.3125 -1.421875 
Q 15.921875 -1.421875 10.953125 3.296875 
Q 6 8.015625 6 15.921875 
Q 6 25.140625 12.171875 29.828125 
Q 18.359375 34.515625 30.609375 34.515625 
L 43.21875 34.515625 
L 43.21875 35.40625 
Q 43.21875 41.609375 39.140625 45 
Q 35.0625 48.390625 27.6875 48.390625 
Q 23 48.390625 18.546875 47.265625 
Q 14.109375 46.140625 10.015625 43.890625 
L 10.015625 52.203125 
Q 14.9375 54.109375 19.578125 55.046875 
Q 24.21875 56 28.609375 56 
Q 40.484375 56 46.34375 49.84375 
Q 52.203125 43.703125 52.203125 31.203125 
" id="BitstreamVeraSans-Roman-61"/>
      <path d="M 44.28125 53.078125 
L 44.28125 44.578125 
Q 40.484375 46.53125 36.375 47.5 
Q 32.28125 48.484375 27.875 48.484375 
Q 21.1875 48.484375 17.84375 46.4375 
Q 14.5 44.390625 14.5 40.28125 
Q 14.5 37.15625 16.890625 35.375 
Q 19.28125 33.59375 26.515625 31.984375 
L 29.59375 31.296875 
Q 39.15625 29.25 43.1875 25.515625 
Q 47.21875 21.78125 47.21875 15.09375 
Q 47.21875 7.46875 41.1875 3.015625 
Q 35.15625 -1.421875 24.609375 -1.421875 
Q 20.21875 -1.421875 15.453125 -0.5625 
Q 10.6875 0.296875 5.421875 2 
L 5.421875 11.28125 
Q 10.40625 8.6875 15.234375 7.390625 
Q 20.0625 6.109375 24.8125 6.109375 
Q 31.15625 6.109375 34.5625 8.28125 
Q 37.984375 10.453125 37.984375 14.40625 
Q 37.984375 18.0625 35.515625 20.015625 
Q 33.0625 21.96875 24.703125 23.78125 
L 21.578125 24.515625 
Q 13.234375 26.265625 9.515625 29.90625 
Q 5.8125 33.546875 5.8125 39.890625 
Q 5.8125 47.609375 11.28125 51.796875 
Q 16.75 56 26.8125 56 
Q 31.78125 56 36.171875 55.265625 
Q 40.578125 54.546875 44.28125 53.078125 
" id="BitstreamVeraSans-Roman-73"/>
     </defs>
     <g transform="translate(258.6028125 418.531875)scale(0.12 -0.12)">
      <use xlink:href="#BitstreamVeraSans-Roman-47"/>
      <use x="77.490234375" xlink:href="#BitstreamVeraSans-Roman-65"/>
      <use x="139.013671875" xlink:href="#BitstreamVeraSans-Roman-6e"/>
      <use x="202.392578125" xlink:href="#BitstreamVeraSans-Roman-65"/>
      <use x="263.916015625" xlink:href="#BitstreamVeraSans-Roman-72"/>
      <use x="305.029296875" xlink:href="#BitstreamVeraSans-Roman-61"/>
      <use x="366.30859375" xlink:href="#BitstreamVeraSans-Roman-74"/>
      <use x="405.517578125" xlink:href="#BitstreamVeraSans-Roman-69"/>
      <use x="433.30078125" xlink:href="#BitstreamVeraSans-Roman-6f"/>
      <use x="494.482421875" xlink:href="#BitstreamVeraSans-Roman-6e"/>
      <use x="557.861328125" xlink:href="#BitstreamVeraSans-Roman-73"/>
     </g>
    </g>
   </g>
   <g id="matplotlib.axis_2">
    <g id="ytick_1">
     <g id="line2d_20">
      <path clip-path="url(#pcca1c17e51)" d="M 72 388.8 
L 518.4 388.8 
" style="fill:none;stroke:#000000;stroke-dasharray:1.000000,3.000000;stroke-dashoffset:0.0;stroke-width:0.5;"/>
     </g>
     <g id="line2d_21">
      <defs>
       <path d="M 0 0 
L 4 0 
" id="mff9521e8a9" style="stroke:#000000;stroke-width:0.5;"/>
      </defs>
      <g>
       <use style="stroke:#000000;stroke-width:0.5;" x="72.0" xlink:href="#mff9521e8a9" y="388.8"/>
      </g>
     </g>
     <g id="line2d_22">
      <defs>
       <path d="M 0 0 
L -4 0 
" id="mfbc70afb5b" style="stroke:#000000;stroke-width:0.5;"/>
      </defs>
      <g>
       <use style="stroke:#000000;stroke-width:0.5;" x="518.4" xlink:href="#mfbc70afb5b" y="388.8"/>
      </g>
     </g>
     <g id="text_7">
      <!-- 1.5 -->
      <defs>
       <path d="M 10.6875 12.40625 
L 21 12.40625 
L 21 0 
L 10.6875 0 
z
" id="BitstreamVeraSans-Roman-2e"/>
      </defs>
      <g transform="translate(48.91625 392.11125)scale(0.12 -0.12)">
       <use xlink:href="#BitstreamVeraSans-Roman-31"/>
       <use x="63.623046875" xlink:href="#BitstreamVeraSans-Roman-2e"/>
       <use x="95.41015625" xlink:href="#BitstreamVeraSans-Roman-35"/>
      </g>
     </g>
    </g>
    <g id="ytick_2">
     <g id="line2d_23">
      <path clip-path="url(#pcca1c17e51)" d="M 72 319.68 
L 518.4 319.68 
" style="fill:none;stroke:#000000;stroke-dasharray:1.000000,3.000000;stroke-dashoffset:0.0;stroke-width:0.5;"/>
     </g>
     <g id="line2d_24">
      <g>
       <use style="stroke:#000000;stroke-width:0.5;" x="72.0" xlink:href="#mff9521e8a9" y="319.68"/>
      </g>
     </g>
     <g id="line2d_25">
      <g>
       <use style="stroke:#000000;stroke-width:0.5;" x="518.4" xlink:href="#mfbc70afb5b" y="319.68"/>
      </g>
     </g>
     <g id="text_8">
      <!-- 2.0 -->
      <g transform="translate(48.91625 322.99125)scale(0.12 -0.12)">
       <use xlink:href="#BitstreamVeraSans-Roman-32"/>
       <use x="63.623046875" xlink:href="#BitstreamVeraSans-Roman-2e"/>
       <use x="95.41015625" xlink:href="#BitstreamVeraSans-Roman-30"/>
      </g>
     </g>
    </g>
    <g id="ytick_3">
     <g id="line2d_26">
      <path clip-path="url(#pcca1c17e51)" d="M 72 250.56 
L 518.4 250.56 
" style="fill:none;stroke:#000000;stroke-dasharray:1.000000,3.000000;stroke-dashoffset:0.0;stroke-width:0.5;"/>
     </g>
     <g id="line2d_27">
      <g>
       <use style="stroke:#000000;stroke-width:0.5;" x="72.0" xlink:href="#mff9521e8a9" y="250.56"/>
      </g>
     </g>
     <g id="line2d_28">
      <g>
       <use style="stroke:#000000;stroke-width:0.5;" x="518.4" xlink:href="#mfbc70afb5b" y="250.56"/>
      </g>
     </g>
     <g id="text_9">
      <!-- 2.5 -->
      <g transform="translate(48.91625 253.87125)scale(0.12 -0.12)">
       <use xlink:href="#BitstreamVeraSans-Roman-32"/>
       <use x="63.623046875" xlink:href="#BitstreamVeraSans-Roman-2e"/>
       <use x="95.41015625" xlink:href="#BitstreamVeraSans-Roman-35"/>
      </g>
     </g>
    </g>
    <g id="ytick_4">
     <g id="line2d_29">
      <path clip-path="url(#pcca1c17e51)" d="M 72 181.44 
L 518.4 181.44 
" style="fill:none;stroke:#000000;stroke-dasharray:1.000000,3.000000;stroke-dashoffset:0.0;stroke-width:0.5;"/>
     </g>
     <g id="line2d_30">
      <g>
       <use style="stroke:#000000;stroke-width:0.5;" x="72.0" xlink:href="#mff9521e8a9" y="181.44"/>
      </g>
     </g>
     <g id="line2d_31">
      <g>
       <use style="stroke:#000000;stroke-width:0.5;" x="518.4" xlink:href="#mfbc70afb5b" y="181.44"/>
      </g>
     </g>
     <g id="text_10">
      <!-- 3.0 -->
      <defs>
       <path d="M 40.578125 39.3125 
Q 47.65625 37.796875 51.625 33 
Q 55.609375 28.21875 55.609375 21.1875 
Q 55.609375 10.40625 48.1875 4.484375 
Q 40.765625 -1.421875 27.09375 -1.421875 
Q 22.515625 -1.421875 17.65625 -0.515625 
Q 12.796875 0.390625 7.625 2.203125 
L 7.625 11.71875 
Q 11.71875 9.328125 16.59375 8.109375 
Q 21.484375 6.890625 26.8125 6.890625 
Q 36.078125 6.890625 40.9375 10.546875 
Q 45.796875 14.203125 45.796875 21.1875 
Q 45.796875 27.640625 41.28125 31.265625 
Q 36.765625 34.90625 28.71875 34.90625 
L 20.21875 34.90625 
L 20.21875 43.015625 
L 29.109375 43.015625 
Q 36.375 43.015625 40.234375 45.921875 
Q 44.09375 48.828125 44.09375 54.296875 
Q 44.09375 59.90625 40.109375 62.90625 
Q 36.140625 65.921875 28.71875 65.921875 
Q 24.65625 65.921875 20.015625 65.03125 
Q 15.375 64.15625 9.8125 62.3125 
L 9.8125 71.09375 
Q 15.4375 72.65625 20.34375 73.4375 
Q 25.25 74.21875 29.59375 74.21875 
Q 40.828125 74.21875 47.359375 69.109375 
Q 53.90625 64.015625 53.90625 55.328125 
Q 53.90625 49.265625 50.4375 45.09375 
Q 46.96875 40.921875 40.578125 39.3125 
" id="BitstreamVeraSans-Roman-33"/>
      </defs>
      <g transform="translate(48.91625 184.75125)scale(0.12 -0.12)">
       <use xlink:href="#BitstreamVeraSans-Roman-33"/>
       <use x="63.623046875" xlink:href="#BitstreamVeraSans-Roman-2e"/>
       <use x="95.41015625" xlink:href="#BitstreamVeraSans-Roman-30"/>
      </g>
     </g>
    </g>
    <g id="ytick_5">
     <g id="line2d_32">
      <path clip-path="url(#pcca1c17e51)" d="M 72 112.32 
L 518.4 112.32 
" style="fill:none;stroke:#000000;stroke-dasharray:1.000000,3.000000;stroke-dashoffset:0.0;stroke-width:0.5;"/>
     </g>
     <g id="line2d_33">
      <g>
       <use style="stroke:#000000;stroke-width:0.5;" x="72.0" xlink:href="#mff9521e8a9" y="112.32"/>
      </g>
     </g>
     <g id="line2d_34">
      <g>
       <use style="stroke:#000000;stroke-width:0.5;" x="518.4" xlink:href="#mfbc70afb5b" y="112.32"/>
      </g>
     </g>
     <g id="text_11">
      <!-- 3.5 -->
      <g transform="translate(48.91625 115.63125)scale(0.12 -0.12)">
       <use xlink:href="#BitstreamVeraSans-Roman-33"/>
       <use x="63.623046875" xlink:href="#BitstreamVeraSans-Roman-2e"/>
       <use x="95.41015625" xlink:href="#BitstreamVeraSans-Roman-35"/>
      </g>
     </g>
    </g>
    <g id="ytick_6">
     <g id="line2d_35">
      <path clip-path="url(#pcca1c17e51)" d="M 72 43.2 
L 518.4 43.2 
" style="fill:none;stroke:#000000;stroke-dasharray:1.000000,3.000000;stroke-dashoffset:0.0;stroke-width:0.5;"/>
     </g>
     <g id="line2d_36">
      <g>
       <use style="stroke:#000000;stroke-width:0.5;" x="72.0" xlink:href="#mff9521e8a9" y="43.2"/>
      </g>
     </g>
     <g id="line2d_37">
      <g>
       <use style="stroke:#000000;stroke-width:0.5;" x="518.4" xlink:href="#mfbc70afb5b" y="43.2"/>
      </g>
     </g>
     <g id="text_12">
      <!-- 4.0 -->
      <defs>
       <path d="M 37.796875 64.3125 
L 12.890625 25.390625 
L 37.796875 25.390625 
z
M 35.203125 72.90625 
L 47.609375 72.90625 
L 47.609375 25.390625 
L 58.015625 25.390625 
L 58.015625 17.1875 
L 47.609375 17.1875 
L 47.609375 0 
L 37.796875 0 
L 37.796875 17.1875 
L 4.890625 17.1875 
L 4.890625 26.703125 
z
" id="BitstreamVeraSans-Roman-34"/>
      </defs>
      <g transform="translate(48.91625 46.51125)scale(0.12 -0.12)">
       <use xlink:href="#BitstreamVeraSans-Roman-34"/>
       <use x="63.623046875" xlink:href="#BitstreamVeraSans-Roman-2e"/>
       <use x="95.41015625" xlink:href="#BitstreamVeraSans-Roman-30"/>
      </g>
     </g>
    </g>
    <g id="text_13">
     <!-- Fitness -->
     <defs>
      <path d="M 9.8125 72.90625 
L 51.703125 72.90625 
L 51.703125 64.59375 
L 19.671875 64.59375 
L 19.671875 43.109375 
L 48.578125 43.109375 
L 48.578125 34.8125 
L 19.671875 34.8125 
L 19.671875 0 
L 9.8125 0 
z
" id="BitstreamVeraSans-Roman-46"/>
     </defs>
     <g transform="translate(41.420625 237.2090625)rotate(-90.0)scale(0.12 -0.12)">
      <use xlink:href="#BitstreamVeraSans-Roman-46"/>
      <use x="57.41015625" xlink:href="#BitstreamVeraSans-Roman-69"/>
      <use x="85.193359375" xlink:href="#BitstreamVeraSans-Roman-74"/>
      <use x="124.40234375" xlink:href="#BitstreamVeraSans-Roman-6e"/>
      <use x="187.78125" xlink:href="#BitstreamVeraSans-Roman-65"/>
      <use x="249.3046875" xlink:href="#BitstreamVeraSans-Roman-73"/>
      <use x="301.404296875" xlink:href="#BitstreamVeraSans-Roman-73"/>
     </g>
    </g>
   </g>
   <g id="text_14">
    <!-- Population's average and best fitness -->
    <defs>
     <path id="BitstreamVeraSans-Roman-20"/>
     <path d="M 37.109375 75.984375 
L 37.109375 68.5 
L 28.515625 68.5 
Q 23.6875 68.5 21.796875 66.546875 
Q 19.921875 64.59375 19.921875 59.515625 
L 19.921875 54.6875 
L 34.71875 54.6875 
L 34.71875 47.703125 
L 19.921875 47.703125 
L 19.921875 0 
L 10.890625 0 
L 10.890625 47.703125 
L 2.296875 47.703125 
L 2.296875 54.6875 
L 10.890625 54.6875 
L 10.890625 58.5 
Q 10.890625 67.625 15.140625 71.796875 
Q 19.390625 75.984375 28.609375 75.984375 
z
" id="BitstreamVeraSans-Roman-66"/>
     <path d="M 17.921875 72.90625 
L 17.921875 45.796875 
L 9.625 45.796875 
L 9.625 72.90625 
z
" id="BitstreamVeraSans-Roman-27"/>
     <path d="M 9.421875 75.984375 
L 18.40625 75.984375 
L 18.40625 0 
L 9.421875 0 
z
" id="BitstreamVeraSans-Roman-6c"/>
     <path d="M 19.671875 64.796875 
L 19.671875 37.40625 
L 32.078125 37.40625 
Q 38.96875 37.40625 42.71875 40.96875 
Q 46.484375 44.53125 46.484375 51.125 
Q 46.484375 57.671875 42.71875 61.234375 
Q 38.96875 64.796875 32.078125 64.796875 
z
M 9.8125 72.90625 
L 32.078125 72.90625 
Q 44.34375 72.90625 50.609375 67.359375 
Q 56.890625 61.8125 56.890625 51.125 
Q 56.890625 40.328125 50.609375 34.8125 
Q 44.34375 29.296875 32.078125 29.296875 
L 19.671875 29.296875 
L 19.671875 0 
L 9.8125 0 
z
" id="BitstreamVeraSans-Roman-50"/>
     <path d="M 2.984375 54.6875 
L 12.5 54.6875 
L 29.59375 8.796875 
L 46.6875 54.6875 
L 56.203125 54.6875 
L 35.6875 0 
L 23.484375 0 
z
" id="BitstreamVeraSans-Roman-76"/>
     <path d="M 45.40625 46.390625 
L 45.40625 75.984375 
L 54.390625 75.984375 
L 54.390625 0 
L 45.40625 0 
L 45.40625 8.203125 
Q 42.578125 3.328125 38.25 0.953125 
Q 33.9375 -1.421875 27.875 -1.421875 
Q 17.96875 -1.421875 11.734375 6.484375 
Q 5.515625 14.40625 5.515625 27.296875 
Q 5.515625 40.1875 11.734375 48.09375 
Q 17.96875 56 27.875 56 
Q 33.9375 56 38.25 53.625 
Q 42.578125 51.265625 45.40625 46.390625 
M 14.796875 27.296875 
Q 14.796875 17.390625 18.875 11.75 
Q 22.953125 6.109375 30.078125 6.109375 
Q 37.203125 6.109375 41.296875 11.75 
Q 45.40625 17.390625 45.40625 27.296875 
Q 45.40625 37.203125 41.296875 42.84375 
Q 37.203125 48.484375 30.078125 48.484375 
Q 22.953125 48.484375 18.875 42.84375 
Q 14.796875 37.203125 14.796875 27.296875 
" id="BitstreamVeraSans-Roman-64"/>
     <path d="M 45.40625 27.984375 
Q 45.40625 37.75 41.375 43.109375 
Q 37.359375 48.484375 30.078125 48.484375 
Q 22.859375 48.484375 18.828125 43.109375 
Q 14.796875 37.75 14.796875 27.984375 
Q 14.796875 18.265625 18.828125 12.890625 
Q 22.859375 7.515625 30.078125 7.515625 
Q 37.359375 7.515625 41.375 12.890625 
Q 45.40625 18.265625 45.40625 27.984375 
M 54.390625 6.78125 
Q 54.390625 -7.171875 48.1875 -13.984375 
Q 42 -20.796875 29.203125 -20.796875 
Q 24.46875 -20.796875 20.265625 -20.09375 
Q 16.0625 -19.390625 12.109375 -17.921875 
L 12.109375 -9.1875 
Q 16.0625 -11.328125 19.921875 -12.34375 
Q 23.78125 -13.375 27.78125 -13.375 
Q 36.625 -13.375 41.015625 -8.765625 
Q 45.40625 -4.15625 45.40625 5.171875 
L 45.40625 9.625 
Q 42.625 4.78125 38.28125 2.390625 
Q 33.9375 0 27.875 0 
Q 17.828125 0 11.671875 7.65625 
Q 5.515625 15.328125 5.515625 27.984375 
Q 5.515625 40.671875 11.671875 48.328125 
Q 17.828125 56 27.875 56 
Q 33.9375 56 38.28125 53.609375 
Q 42.625 51.21875 45.40625 46.390625 
L 45.40625 54.6875 
L 54.390625 54.6875 
z
" id="BitstreamVeraSans-Roman-67"/>
     <path d="M 8.5 21.578125 
L 8.5 54.6875 
L 17.484375 54.6875 
L 17.484375 21.921875 
Q 17.484375 14.15625 20.5 10.265625 
Q 23.53125 6.390625 29.59375 6.390625 
Q 36.859375 6.390625 41.078125 11.03125 
Q 45.3125 15.671875 45.3125 23.6875 
L 45.3125 54.6875 
L 54.296875 54.6875 
L 54.296875 0 
L 45.3125 0 
L 45.3125 8.40625 
Q 42.046875 3.421875 37.71875 1 
Q 33.40625 -1.421875 27.6875 -1.421875 
Q 18.265625 -1.421875 13.375 4.4375 
Q 8.5 10.296875 8.5 21.578125 
" id="BitstreamVeraSans-Roman-75"/>
     <path d="M 18.109375 8.203125 
L 18.109375 -20.796875 
L 9.078125 -20.796875 
L 9.078125 54.6875 
L 18.109375 54.6875 
L 18.109375 46.390625 
Q 20.953125 51.265625 25.265625 53.625 
Q 29.59375 56 35.59375 56 
Q 45.5625 56 51.78125 48.09375 
Q 58.015625 40.1875 58.015625 27.296875 
Q 58.015625 14.40625 51.78125 6.484375 
Q 45.5625 -1.421875 35.59375 -1.421875 
Q 29.59375 -1.421875 25.265625 0.953125 
Q 20.953125 3.328125 18.109375 8.203125 
M 48.6875 27.296875 
Q 48.6875 37.203125 44.609375 42.84375 
Q 40.53125 48.484375 33.40625 48.484375 
Q 26.265625 48.484375 22.1875 42.84375 
Q 18.109375 37.203125 18.109375 27.296875 
Q 18.109375 17.390625 22.1875 11.75 
Q 26.265625 6.109375 33.40625 6.109375 
Q 40.53125 6.109375 44.609375 11.75 
Q 48.6875 17.390625 48.6875 27.296875 
" id="BitstreamVeraSans-Roman-70"/>
     <path d="M 48.6875 27.296875 
Q 48.6875 37.203125 44.609375 42.84375 
Q 40.53125 48.484375 33.40625 48.484375 
Q 26.265625 48.484375 22.1875 42.84375 
Q 18.109375 37.203125 18.109375 27.296875 
Q 18.109375 17.390625 22.1875 11.75 
Q 26.265625 6.109375 33.40625 6.109375 
Q 40.53125 6.109375 44.609375 11.75 
Q 48.6875 17.390625 48.6875 27.296875 
M 18.109375 46.390625 
Q 20.953125 51.265625 25.265625 53.625 
Q 29.59375 56 35.59375 56 
Q 45.5625 56 51.78125 48.09375 
Q 58.015625 40.1875 58.015625 27.296875 
Q 58.015625 14.40625 51.78125 6.484375 
Q 45.5625 -1.421875 35.59375 -1.421875 
Q 29.59375 -1.421875 25.265625 0.953125 
Q 20.953125 3.328125 18.109375 8.203125 
L 18.109375 0 
L 9.078125 0 
L 9.078125 75.984375 
L 18.109375 75.984375 
z
" id="BitstreamVeraSans-Roman-62"/>
    </defs>
    <g transform="translate(159.786 38.2)scale(0.144 -0.144)">
     <use xlink:href="#BitstreamVeraSans-Roman-50"/>
     <use x="60.255859375" xlink:href="#BitstreamVeraSans-Roman-6f"/>
     <use x="121.4375" xlink:href="#BitstreamVeraSans-Roman-70"/>
     <use x="184.9140625" xlink:href="#BitstreamVeraSans-Roman-75"/>
     <use x="248.29296875" xlink:href="#BitstreamVeraSans-Roman-6c"/>
     <use x="276.076171875" xlink:href="#BitstreamVeraSans-Roman-61"/>
     <use x="337.35546875" xlink:href="#BitstreamVeraSans-Roman-74"/>
     <use x="376.564453125" xlink:href="#BitstreamVeraSans-Roman-69"/>
     <use x="404.34765625" xlink:href="#BitstreamVeraSans-Roman-6f"/>
     <use x="465.529296875" xlink:href="#BitstreamVeraSans-Roman-6e"/>
     <use x="528.908203125" xlink:href="#BitstreamVeraSans-Roman-27"/>
     <use x="556.3984375" xlink:href="#BitstreamVeraSans-Roman-73"/>
     <use x="608.498046875" xlink:href="#BitstreamVeraSans-Roman-20"/>
     <use x="640.28515625" xlink:href="#BitstreamVeraSans-Roman-61"/>
     <use x="701.564453125" xlink:href="#BitstreamVeraSans-Roman-76"/>
     <use x="760.744140625" xlink:href="#BitstreamVeraSans-Roman-65"/>
     <use x="822.267578125" xlink:href="#BitstreamVeraSans-Roman-72"/>
     <use x="863.380859375" xlink:href="#BitstreamVeraSans-Roman-61"/>
     <use x="924.66015625" xlink:href="#BitstreamVeraSans-Roman-67"/>
     <use x="988.13671875" xlink:href="#BitstreamVeraSans-Roman-65"/>
     <use x="1049.66015625" xlink:href="#BitstreamVeraSans-Roman-20"/>
     <use x="1081.44726562" xlink:href="#BitstreamVeraSans-Roman-61"/>
     <use x="1142.7265625" xlink:href="#BitstreamVeraSans-Roman-6e"/>
     <use x="1206.10546875" xlink:href="#BitstreamVeraSans-Roman-64"/>
     <use x="1269.58203125" xlink:href="#BitstreamVeraSans-Roman-20"/>
     <use x="1301.36914062" xlink:href="#BitstreamVeraSans-Roman-62"/>
     <use x="1364.84570312" xlink:href="#BitstreamVeraSans-Roman-65"/>
     <use x="1426.36914062" xlink:href="#BitstreamVeraSans-Roman-73"/>
     <use x="1478.46875" xlink:href="#BitstreamVeraSans-Roman-74"/>
     <use x="1517.67773438" xlink:href="#BitstreamVeraSans-Roman-20"/>
     <use x="1549.46484375" xlink:href="#BitstreamVeraSans-Roman-66"/>
     <use x="1584.66992188" xlink:href="#BitstreamVeraSans-Roman-69"/>
     <use x="1612.453125" xlink:href="#BitstreamVeraSans-Roman-74"/>
     <use x="1651.66210938" xlink:href="#BitstreamVeraSans-Roman-6e"/>
     <use x="1715.04101562" xlink:href="#BitstreamVeraSans-Roman-65"/>
     <use x="1776.56445312" xlink:href="#BitstreamVeraSans-Roman-73"/>
     <use x="1828.6640625" xlink:href="#BitstreamVeraSans-Roman-73"/>
    </g>
   </g>
   <g id="legend_1">
    <g id="patch_7">
     <path d="M 79.2 139.266 
L 189.9945 139.266 
L 189.9945 50.4 
L 79.2 50.4 
z
" style="fill:#ffffff;stroke:#000000;stroke-linejoin:miter;"/>
    </g>
    <g id="line2d_38">
     <path d="M 89.28 62.06175 
L 109.44 62.06175 
" style="fill:none;stroke:#0000ff;stroke-linecap:square;"/>
    </g>
    <g id="line2d_39"/>
    <g id="text_15">
     <!-- average -->
     <g transform="translate(125.28 67.10175)scale(0.144 -0.144)">
      <use xlink:href="#BitstreamVeraSans-Roman-61"/>
      <use x="61.279296875" xlink:href="#BitstreamVeraSans-Roman-76"/>
      <use x="120.458984375" xlink:href="#BitstreamVeraSans-Roman-65"/>
      <use x="181.982421875" xlink:href="#BitstreamVeraSans-Roman-72"/>
      <use x="223.095703125" xlink:href="#BitstreamVeraSans-Roman-61"/>
      <use x="284.375" xlink:href="#BitstreamVeraSans-Roman-67"/>
      <use x="347.8515625" xlink:href="#BitstreamVeraSans-Roman-65"/>
     </g>
    </g>
    <g id="line2d_40">
     <path d="M 89.28 83.19825 
L 109.44 83.19825 
" style="fill:none;stroke:#008000;stroke-dasharray:3.000000,5.000000,1.000000,5.000000;stroke-dashoffset:0.0;"/>
    </g>
    <g id="line2d_41"/>
    <g id="text_16">
     <!-- -1 sd -->
     <defs>
      <path d="M 4.890625 31.390625 
L 31.203125 31.390625 
L 31.203125 23.390625 
L 4.890625 23.390625 
z
" id="BitstreamVeraSans-Roman-2d"/>
     </defs>
     <g transform="translate(125.28 88.23825)scale(0.144 -0.144)">
      <use xlink:href="#BitstreamVeraSans-Roman-2d"/>
      <use x="36.083984375" xlink:href="#BitstreamVeraSans-Roman-31"/>
      <use x="99.70703125" xlink:href="#BitstreamVeraSans-Roman-20"/>
      <use x="131.494140625" xlink:href="#BitstreamVeraSans-Roman-73"/>
      <use x="183.59375" xlink:href="#BitstreamVeraSans-Roman-64"/>
     </g>
    </g>
    <g id="line2d_42">
     <path d="M 89.28 104.33475 
L 109.44 104.33475 
" style="fill:none;stroke:#008000;stroke-dasharray:3.000000,5.000000,1.000000,5.000000;stroke-dashoffset:0.0;"/>
    </g>
    <g id="line2d_43"/>
    <g id="text_17">
     <!-- +1 sd -->
     <defs>
      <path d="M 46 62.703125 
L 46 35.5 
L 73.1875 35.5 
L 73.1875 27.203125 
L 46 27.203125 
L 46 0 
L 37.796875 0 
L 37.796875 27.203125 
L 10.59375 27.203125 
L 10.59375 35.5 
L 37.796875 35.5 
L 37.796875 62.703125 
z
" id="BitstreamVeraSans-Roman-2b"/>
     </defs>
     <g transform="translate(125.28 109.37475)scale(0.144 -0.144)">
      <use xlink:href="#BitstreamVeraSans-Roman-2b"/>
      <use x="83.7890625" xlink:href="#BitstreamVeraSans-Roman-31"/>
      <use x="147.412109375" xlink:href="#BitstreamVeraSans-Roman-20"/>
      <use x="179.19921875" xlink:href="#BitstreamVeraSans-Roman-73"/>
      <use x="231.298828125" xlink:href="#BitstreamVeraSans-Roman-64"/>
     </g>
    </g>
    <g id="line2d_44">
     <path d="M 89.28 125.47125 
L 109.44 125.47125 
" style="fill:none;stroke:#ff0000;stroke-linecap:square;"/>
    </g>
    <g id="line2d_45"/>
    <g id="text_18">
     <!-- best -->
     <g transform="translate(125.28 130.51125)scale(0.144 -0.144)">
      <use xlink:href="#BitstreamVeraSans-Roman-62"/>
      <use x="63.4765625" xlink:href="#BitstreamVeraSans-Roman-65"/>
      <use x="125.0" xlink:href="#BitstreamVeraSans-Roman-73"/>
      <use x="177.099609375" xlink:href="#BitstreamVeraSans-Roman-74"/>
     </g>
    </g>
   </g>
  </g>
 </g>
 <defs>
  <clipPath id="pcca1c17e51">
   <rect height="345.6" width="446.4" x="72.0" y="43.2"/>
  </clipPath>
 </defs>
</svg>
