<?xml version="1.0" encoding="UTF-8" standalone="no"?>
<!DOCTYPE svg PUBLIC "-//W3C//DTD SVG 1.1//EN"
 "http://www.w3.org/Graphics/SVG/1.1/DTD/svg11.dtd">
<!-- Generated by graphviz version 2.38.0 (20140413.2041)
 -->
<!-- Title: %3 Pages: 1 -->
<svg width="151pt" height="214pt"
 viewBox="0.00 0.00 150.70 214.35" xmlns="http://www.w3.org/2000/svg" xmlns:xlink="http://www.w3.org/1999/xlink">
<g id="graph0" class="graph" transform="scale(1 1) rotate(0) translate(4 210.35)">
<title>%3</title>
<polygon fill="white" stroke="none" points="-4,4 -4,-210.35 146.698,-210.35 146.698,4 -4,4"/>
<!-- A -->
<g id="node1" class="node"><title>A</title>
<polygon fill="lightgray" stroke="black" points="95.3492,-200.501 72.3492,-200.501 72.3492,-182.501 95.3492,-182.501 95.3492,-200.501"/>
<text text-anchor="middle" x="83.8492" y="-189.301" font-family="Times,serif" font-size="9.00">A</text>
</g>
<!-- A XOR B -->
<g id="node3" class="node"><title>A XOR B</title>
<ellipse fill="lightblue" stroke="black" cx="84.8492" cy="-37.4767" rx="37.4533" ry="37.4533"/>
<text text-anchor="middle" x="84.8492" y="-35.2767" font-family="Times,serif" font-size="9.00">A XOR B</text>
</g>
<!-- A&#45;&gt;A XOR B -->
<g id="edge6" class="edge"><title>A&#45;&gt;A XOR B</title>
<path fill="none" stroke="red" stroke-width="0.270564" d="M84.4875,-182.392C85.2287,-172.533 86.4063,-155.384 86.8492,-140.652 87.3879,-122.735 87.1899,-103.046 86.7528,-85.7743"/>
<polygon fill="red" stroke="red" stroke-width="0.270564" points="90.2397,-85.2655 86.4541,-75.3701 83.2426,-85.4664 90.2397,-85.2655"/>
</g>
<!-- 2 -->
<g id="node5" class="node"><title>2</title>
<ellipse fill="white" stroke="black" cx="62.8492" cy="-125.803" rx="14.7" ry="14.7"/>
<text text-anchor="middle" x="62.8492" y="-123.603" font-family="Times,serif" font-size="9.00">2</text>
</g>
<!-- A&#45;&gt;2 -->
<g id="edge3" class="edge"><title>A&#45;&gt;2</title>
<path fill="none" stroke="green" stroke-width="0.570282" d="M81.1896,-182.434C78.5194,-174.334 74.2775,-161.467 70.5455,-150.147"/>
<polygon fill="green" stroke="green" stroke-width="0.570282" points="73.7764,-148.769 67.3213,-140.367 67.1283,-150.96 73.7764,-148.769"/>
</g>
<!-- B -->
<g id="node2" class="node"><title>B</title>
<polygon fill="lightgray" stroke="black" points="53.3492,-200.501 30.3492,-200.501 30.3492,-182.501 53.3492,-182.501 53.3492,-200.501"/>
<text text-anchor="middle" x="41.8492" y="-189.301" font-family="Times,serif" font-size="9.00">B</text>
</g>
<!-- B&#45;&gt;A XOR B -->
<g id="edge2" class="edge"><title>B&#45;&gt;A XOR B</title>
<path fill="none" stroke="red" stroke-width="0.423281" d="M39.8929,-182.393C36.7241,-167.773 31.5228,-136.169 38.8492,-110.953 42.4584,-98.5316 48.9081,-86.2014 55.8574,-75.3288"/>
<polygon fill="red" stroke="red" stroke-width="0.423281" points="58.8174,-77.1991 61.4928,-66.9477 53.0084,-73.2932 58.8174,-77.1991"/>
</g>
<!-- B&#45;&gt;2 -->
<g id="edge1" class="edge"><title>B&#45;&gt;2</title>
<path fill="none" stroke="green" stroke-width="1.05972" d="M44.5089,-182.434C47.1791,-174.334 51.421,-161.467 55.1529,-150.147"/>
<polygon fill="green" stroke="green" stroke-width="1.05972" points="58.5701,-150.96 58.3772,-140.367 51.9221,-148.769 58.5701,-150.96"/>
</g>
<!-- 1 -->
<g id="node4" class="node"><title>1</title>
<ellipse fill="white" stroke="black" cx="127.849" cy="-191.501" rx="14.7" ry="14.7"/>
<text text-anchor="middle" x="127.849" y="-189.301" font-family="Times,serif" font-size="9.00">1</text>
</g>
<!-- 2&#45;&gt;A XOR B -->
<g id="edge4" class="edge"><title>2&#45;&gt;A XOR B</title>
<path fill="none" stroke="green" stroke-width="0.922876" d="M66.2867,-111.314C68.1901,-103.845 70.679,-94.0793 73.2131,-84.1358"/>
<polygon fill="green" stroke="green" stroke-width="0.922876" points="76.6642,-84.7665 75.7422,-74.2119 69.881,-83.0378 76.6642,-84.7665"/>
</g>
<!-- 3 -->
<g id="node6" class="node"><title>3</title>
<ellipse fill="white" stroke="black" cx="14.8492" cy="-37.4767" rx="14.7" ry="14.7"/>
<text text-anchor="middle" x="14.8492" y="-35.2767" font-family="Times,serif" font-size="9.00">3</text>
</g>
<!-- 2&#45;&gt;3 -->
<g id="edge5" class="edge"><title>2&#45;&gt;3</title>
<path fill="none" stroke="green" stroke-width="0.162598" d="M55.972,-112.434C48.3443,-98.716 35.9016,-76.3384 26.6977,-59.7856"/>
<polygon fill="green" stroke="green" stroke-width="0.162598" points="29.6323,-57.861 21.7137,-50.8221 23.5144,-61.2628 29.6323,-57.861"/>
</g>
</g>
</svg>
